<?xml version="1.0" encoding="utf-8"?>
<!-- Generator: Adobe Illustrator 15.0.0, SVG Export Plug-In . SVG Version: 6.00 Build 0)  -->
<!DOCTYPE svg PUBLIC "-//W3C//DTD SVG 1.1//EN" "http://www.w3.org/Graphics/SVG/1.1/DTD/svg11.dtd">
<svg version="1.1" id="Calque_1" xmlns="http://www.w3.org/2000/svg" xmlns:xlink="http://www.w3.org/1999/xlink" x="0px" y="0px"
	 width="40px" height="40px" viewBox="0 0 40 40" enable-background="new 0 0 40 40" xml:space="preserve">
<path d="M28.8,26.8L28.9,26.9l0,0L23.8,21.7V21.6l0.101-0.1c2-2.8,1.8-6.7-0.7-9.1c-1.3-1.3-3.1-2.1-5-2.1c-1.9,0-3.6,0.7-5,2.1
	c-1.3,1.3-2.1,3.1-2.1,5s0.7,3.6,2.1,5c1.3,1.3,3.1,2,5,2c1.5,0,3-0.5,4.2-1.4l0.1-0.1l5.1,5.1L28.8,26.8z M22,21.2
	c-1,1-2.4,1.6-3.8,1.6c-1.5,0-2.8-0.6-3.8-1.6s-1.6-2.4-1.6-3.8c0-1.5,0.6-2.8,1.6-3.8s2.4-1.6,3.8-1.6c1.4,0,2.8,0.6,3.8,1.6
	s1.6,2.4,1.6,3.8S23,20.2,22,21.2z"/>
</svg>
