<?xml version="1.0" standalone="no"?>
<!DOCTYPE svg PUBLIC "-//W3C//DTD SVG 20010904//EN"
 "http://www.w3.org/TR/2001/REC-SVG-20010904/DTD/svg10.dtd">
<svg version="1.0" xmlns="http://www.w3.org/2000/svg"
 width="128.000000pt" height="128.000000pt" viewBox="0 0 128.000000 128.000000"
 preserveAspectRatio="xMidYMid meet">
<metadata>
Created by potrace 1.11, written by Peter Selinger 2001-2013
</metadata>
<g transform="translate(0.000000,128.000000) scale(0.100000,-0.100000)"
fill="#000000" stroke="none">
<path d="M859 1089 c-10 -6 -4 -30 23 -103 l36 -97 -78 -101 c-43 -56 -76
-106 -74 -110 9 -15 102 -9 118 7 8 9 34 43 57 76 l43 60 26 -73 26 -73 49 -3
c26 -2 52 1 57 6 5 5 -7 52 -28 110 l-37 102 72 96 c40 52 70 98 67 101 -11
12 -82 10 -102 -2 -11 -7 -37 -38 -59 -69 -21 -30 -41 -53 -46 -51 -4 3 -15
29 -24 58 -10 28 -22 56 -26 62 -12 12 -83 15 -100 4z"/>
<path d="M142 997 c-7 -8 -10 -16 -8 -18 2 -2 7 -26 10 -53 4 -27 9 -52 10
-55 2 -3 7 -26 10 -51 3 -25 8 -56 11 -70 18 -100 25 -163 19 -173 -4 -7 -27
-38 -51 -69 -24 -31 -43 -61 -43 -66 0 -25 92 -22 122 5 31 28 176 248 218
333 24 47 53 114 66 150 26 75 21 84 -48 78 l-41 -4 -24 -69 c-25 -76 -94
-217 -102 -210 -2 3 -14 67 -25 142 l-21 138 -46 3 c-30 2 -50 -2 -57 -11z"/>
<path d="M596 781 c-20 -22 -30 -80 -18 -99 13 -19 79 -17 101 3 23 20 34 71
21 96 -14 26 -80 26 -104 0z"/>
<path d="M443 562 c-7 -4 -14 -23 -15 -42 l-3 -35 68 -3 c37 -2 67 -5 67 -8 0
-5 -110 -141 -176 -216 -31 -35 -44 -108 -20 -109 20 -1 61 -1 181 0 l94 1 9
33 c13 44 -2 53 -82 52 -36 0 -66 1 -66 3 0 4 60 83 70 92 3 3 25 30 50 60 25
30 47 57 50 60 19 17 36 59 36 85 l-1 30 -125 2 c-69 1 -131 -1 -137 -5z"/>
</g>
</svg>
